<svg width="182" height="288" viewBox="0 0 182 288" fill="none" xmlns="http://www.w3.org/2000/svg">
<g clip-path="url(#clip0)">
<path d="M153.064 285.67H157.872L158.121 176.287H153.314L153.064 285.67Z" fill="#EDEDED" stroke="#808285" stroke-width="0.15" stroke-miterlimit="10"/>
<path d="M150.661 285.67H153.065L153.314 176.287H150.91L150.661 285.67Z" fill="#BFBEBE"/>
<path d="M72.4361 130.57H66.2217V284.763H72.4361V130.57Z" fill="#EDEDED" stroke="#808285" stroke-width="0.15" stroke-miterlimit="10"/>
<path d="M76.5854 130.57H72.4365V284.763H76.5854V130.57Z" fill="#BFBEBE"/>
<path d="M76.5852 276.153H8.26172V284.763H76.5852V276.153Z" fill="#EDEDED" stroke="#808285" stroke-width="0.15" stroke-miterlimit="10"/>
<path d="M18.6255 130.57H14.4766V284.763H18.6255V130.57Z" fill="#BFBEBE"/>
<path d="M14.4762 130.57H8.26172V284.763H14.4762V130.57Z" fill="#EDEDED" stroke="#808285" stroke-width="0.15" stroke-miterlimit="10"/>
<path d="M82.9071 285.924H87.7148L87.7148 172.983H82.9071L82.9071 285.924Z" fill="#EDEDED" stroke="#808285" stroke-width="0.15" stroke-miterlimit="10"/>
<path d="M80.5063 285.924H82.9102L82.9102 172.983H80.5063L80.5063 285.924Z" fill="#BFBEBE"/>
<path d="M28.6569 180.176H107.041V170.891H28.6569V180.176Z" fill="#BFBEBE"/>
<path d="M96.3145 285.67H101.122L101.87 179.062H97.0623L96.3145 285.67Z" fill="#EDEDED" stroke="#808285" stroke-width="0.15" stroke-miterlimit="10"/>
<path d="M93.9111 285.67H96.315L97.0629 179.062H94.659L93.9111 285.67Z" fill="#BFBEBE"/>
<path d="M81.5186 170.897H150.982L180.932 58.4006H113.089L81.5186 170.897Z" fill="#EDEDED" stroke="#808285" stroke-width="0.15" stroke-miterlimit="10"/>
<path d="M181.84 58.4006L158.442 180.182H89.9053V170.897H150.981L173.293 58.4184L181.84 58.4006Z" fill="#EDEDED" stroke="#808285" stroke-width="0.15" stroke-miterlimit="10"/>
<path d="M37.121 286.475H41.9287L41.9287 172.2H37.121L37.121 286.475Z" fill="#EDEDED" stroke="#808285" stroke-width="0.15" stroke-miterlimit="10"/>
<path d="M34.7201 286.475H37.124L37.124 172.2H34.7201L34.7201 286.475Z" fill="#BFBEBE"/>
<path d="M81.8561 57.0307C81.8561 57.0307 51.6385 44.0449 71.7598 29.0668C71.7598 29.0668 64.8152 9.1078 82.5327 1.24517C82.5327 1.24517 94.1603 -2.82845 98.0599 10.8867C98.0599 10.8867 109.67 8.165 110.489 22.5205C110.489 22.5205 119.552 6.75969 136.148 15.9743C152.744 25.1888 146.084 47.8339 146.084 47.8339C146.084 47.8339 159.261 42.5685 160.97 58.5606C163.57 83.1802 125.25 90.4024 125.25 90.4024L81.8561 57.0307Z" fill="#353635"/>
<path d="M72.0813 51.1782C70.2651 49.8263 68.5556 48.2965 67.1845 46.4642C65.8134 44.6498 64.745 42.4973 64.5848 40.1492C64.4067 37.8011 65.3149 35.4708 66.6147 33.5674C67.9502 31.6462 69.6952 30.1164 71.4759 28.6755L71.3156 29.2091C70.4431 26.523 69.998 23.7658 69.8733 20.9729C69.7665 18.1801 70.1226 15.3517 70.9951 12.6656C71.8142 9.96169 73.3634 7.47127 75.3399 5.44335C77.2452 3.3087 79.7737 1.90338 82.2666 0.622594L82.32 0.604805C84.1185 0.053354 85.8991 -0.106745 87.7332 0.0533539C89.5495 0.24903 91.3479 0.81827 92.8793 1.86781C94.3928 2.89956 95.6749 4.2515 96.6008 5.79912C97.0994 6.54625 97.4199 7.40011 97.8295 8.18282L98.702 10.691L97.9541 10.2463C99.717 9.92612 101.444 9.96169 103.154 10.3886C104.845 10.8156 106.448 11.705 107.676 12.9858C108.87 14.2844 109.689 15.8498 110.205 17.4685C110.454 18.2868 110.597 19.1229 110.775 19.9412L111.024 22.4494L110.098 22.2359C111.487 20.0835 113.214 18.2513 115.173 16.6681C117.15 15.1204 119.429 13.9108 121.868 13.3238C124.308 12.7367 126.872 12.63 129.294 13.2348C130.54 13.3949 131.68 13.9286 132.855 14.3022C133.994 14.7824 135.063 15.4051 136.167 15.9387C135.027 15.4584 133.923 14.8892 132.784 14.48C131.591 14.1776 130.451 13.6618 129.222 13.5728C126.818 13.0747 124.326 13.2882 122.011 13.9464C119.696 14.6046 117.523 15.7786 115.654 17.3262C113.802 18.8561 112.164 20.7239 110.917 22.7518C110.775 22.9831 110.454 23.072 110.223 22.9119C110.08 22.823 110.009 22.6984 109.991 22.5383V22.5206L109.706 20.1191C109.511 19.3542 109.35 18.5537 109.119 17.8065C108.585 16.3123 107.837 14.9248 106.786 13.8041C105.718 12.7012 104.329 11.954 102.815 11.5805C101.337 11.2069 99.6814 11.1891 98.2034 11.4737C97.8829 11.5627 97.5802 11.3848 97.4555 11.0824V11.0646L96.6186 8.69869C96.2269 7.96935 95.942 7.18665 95.4612 6.51067C94.6065 5.08757 93.4491 3.91351 92.1136 3.00629C90.7781 2.09906 89.1933 1.60098 87.573 1.44088C85.9704 1.26299 84.2431 1.44088 82.7474 1.8856L82.8008 1.86781C80.4326 3.05965 78.0465 4.35823 76.248 6.35057C74.3962 8.21839 72.936 10.5309 72.1347 13.0747C71.28 15.6007 70.9595 18.2868 70.9951 20.9729C71.0485 23.659 71.4225 26.3807 72.1882 28.9245V28.9423C72.2416 29.138 72.1704 29.3514 72.0279 29.4582C70.2651 30.8279 68.5378 32.251 67.238 34.0477C65.9559 35.8265 65.0656 37.9434 65.1368 40.1492C65.208 42.355 66.134 44.4719 67.416 46.3041C68.7337 48.1186 70.3363 49.7196 72.0813 51.1782Z" fill="#353635"/>
<path d="M25.3214 102.179C25.1256 101.165 26.6925 99.2612 27.6185 98.8165C37.3764 94.1202 54.6131 87.6451 58.5305 84.2831C61.0234 82.1484 71.5649 85.5461 67.8967 92.3236C66.49 94.9207 60.4536 100.933 56.6608 102.943C42.38 110.433 29.2567 122.422 25.3214 102.179Z" fill="#51C3CF"/>
<path d="M52.0132 287.662C50.4818 284.763 58.0852 281.863 62.2163 280.458C61.1479 281.312 59.8837 282.521 61.7533 282.824C64.4777 283.268 70.1936 281.738 71.6715 279.639C72.4906 280.991 72.8824 282.948 73.0248 284.3C73.2029 286.061 52.7255 288.996 52.0132 287.662Z" fill="#353635"/>
<path d="M61.7536 282.824C59.8839 282.521 59.1895 281.329 61.896 280.564C64.3177 279.871 66.2052 278.75 66.6326 278.501C67.7366 277.843 67.9503 275.939 67.9503 275.939L70.1583 275.619C70.1583 275.619 71.4581 279.248 71.6896 279.639C70.1761 281.756 64.478 283.268 61.7536 282.824Z" fill="#B57F71"/>
<path d="M0 246.445C0 244.222 7.49653 242.656 11.8591 242.514C10.5949 243.03 9.02788 243.813 10.7195 244.649C13.2124 245.858 19.1063 246.054 21.1363 244.471C21.528 246.001 21.3322 247.975 21.0829 249.327C20.7445 251.035 0 247.958 0 246.445Z" fill="#353635"/>
<path d="M10.7198 244.631C9.02815 243.795 8.68983 242.461 11.5033 242.496C14.014 242.532 16.1686 241.998 16.6315 241.892C17.878 241.589 18.6258 239.828 18.6258 239.828L20.8338 240.166C20.8338 240.166 21.0119 244.008 21.1366 244.453C19.1066 246.054 13.2127 245.858 10.7198 244.631Z" fill="#B57F71"/>
<path d="M140.529 133.487C137.929 114.24 127.477 100.524 127.477 100.524C127.477 100.524 90.3145 101.467 86.9135 107.782C87.0025 107.871 86.7888 117.655 86.2724 118.242C71.0123 135.693 43.2698 134.501 42.7356 157.769C41.6672 203.681 54.2742 271.101 62.2693 275.975C64.3171 277.22 68.2879 276.509 68.2879 276.509C70.0507 276.455 70.1576 275.619 70.2466 273.04L70.7808 172.142L102.619 169.669C111.166 169.385 112.59 169.829 126.408 166.627C134.617 164.706 143.039 152.201 140.529 133.487Z" fill="#C9C9C9" stroke="#808285" stroke-width="0.15" stroke-miterlimit="10"/>
<path d="M83.7612 108.262C90.3852 109.063 115.831 110.806 128.847 102.517C129.453 88.499 129.168 72.7559 126.016 60.0014C125.108 56.3369 122.918 49.3993 119.873 45.9483C115.475 40.9674 107.747 41.0386 101.194 42.1237C97.9174 42.6752 94.6766 43.191 93.074 43.4401C81.6601 45.1478 81.8203 45.468 77.2084 51.6407C73.291 56.835 83.7612 108.262 83.7612 108.262Z" fill="#51C3CF"/>
<path d="M83.7612 108.262C86.8596 108.636 94.3205 109.045 102.743 108.547C103.437 108.511 106.304 108.494 106.304 108.494C106.304 108.494 103.42 91.4521 99.3775 74.8729C95.5313 59.0943 98.4516 44.8633 98.042 42.9243C97.8818 42.1594 91.5783 43.6537 90.9016 43.7604C81.6601 45.2013 81.4998 45.8773 77.2084 51.623C73.291 56.8351 83.7612 108.262 83.7612 108.262Z" fill="#51C3CF"/>
<path d="M93.4844 34.6169C93.4844 34.6169 95.2294 42.9776 95.6924 44.2762C96.2978 46.0195 100.66 47.0335 101.319 44.0805C101.978 41.1098 97.5264 33.176 97.5264 33.176L93.4844 34.6169Z" fill="#B57F71"/>
<path d="M95.0869 41.9815C96.9388 42.2661 99.218 41.9637 100.785 40.3805C100.215 38.6016 99.3248 36.6626 98.6304 35.2573L93.9473 36.9473C94.2322 38.4059 94.6595 40.3093 95.0869 41.9815Z" fill="#A37167"/>
<path d="M99.6099 29.6717C99.699 28.3553 97.9183 24.175 96.3157 20.7417C94.9981 17.8955 91.5614 16.7037 88.748 18.0912C84.3676 20.2614 79.6667 22.912 78.7051 24.3528C77.2094 26.6298 78.438 29.6717 79.3284 31.9486C80.2009 34.2256 82.5869 37.979 84.7415 39.2954C86.718 40.4872 90.9738 40.4872 93.0037 39.58C99.0757 36.8583 100.162 34.528 99.6099 29.6717Z" fill="#B57F71"/>
<path d="M88.285 45.6282C88.285 45.6282 88.837 52.8505 78.9188 72.1335C67.2021 94.9209 67.8253 97.5536 60.6315 93.6223L55.0225 90.6694C55.0225 90.6694 65.6707 60.4463 69.9265 53.0461C74.6808 44.8277 88.285 45.6282 88.285 45.6282Z" fill="#51C3CF"/>
<path d="M104.684 74.268H103.812V55.074H104.684C107.284 55.074 109.403 57.1908 109.403 59.788V69.554C109.403 72.1512 107.284 74.268 104.684 74.268Z" fill="#EDEDED" stroke="#808285" stroke-width="0.15" stroke-miterlimit="10"/>
<path d="M35.702 93.8359H34.4199V89.4065H35.702C36.2362 89.4065 36.6635 89.8334 36.6635 90.3671V92.8575C36.6635 93.409 36.2362 93.8359 35.702 93.8359Z" fill="#EDEDED" stroke="#808285" stroke-width="0.15" stroke-miterlimit="10"/>
<path d="M34.5623 77.6836H30.2354V95.3656H34.5623V77.6836Z" fill="#EDEDED" stroke="#808285" stroke-width="0.15" stroke-miterlimit="10"/>
<path d="M102.975 63.0078H96.4043V67.117H102.975V63.0078Z" fill="#EDEDED" stroke="#808285" stroke-width="0.15" stroke-miterlimit="10"/>
<path d="M39.0853 84.1409H26.5139C25.5879 84.1409 24.8223 83.3938 24.8223 82.451V50.0933C24.8223 49.1682 25.5701 48.4033 26.5139 48.4033H46.2791L40.7413 82.7178C40.5988 83.5361 39.9044 84.1409 39.0853 84.1409Z" fill="#ABABAB"/>
<path d="M96.8672 69.7499H37.625V48.4211H94.4811C95.7988 48.4211 96.8493 49.4885 96.8493 50.787V69.7499H96.8672Z" fill="#ABABAB"/>
<path d="M65.4922 65.5695L59.99 104.331C59.7941 105.719 60.8625 106.964 62.2692 106.964H97.8288V106.324V50.1289C97.8288 49.1861 97.0631 48.4211 96.1193 48.4211H66.7743L65.4922 65.5695Z" fill="#ABABAB"/>
<path d="M90.0475 61.4069H73.0067C71.8849 61.4069 70.959 60.4997 70.959 59.3612V58.116C70.959 56.9953 71.8671 56.0703 73.0067 56.0703H90.0475C91.1693 56.0703 92.0953 56.9775 92.0953 58.116V59.3612C92.0953 60.4997 91.1693 61.4069 90.0475 61.4069Z" fill="#EDEDED" stroke="#808285" stroke-width="0.15" stroke-miterlimit="10"/>
<path d="M90.1188 57.0308H72.9355V60.4462H90.1188V57.0308Z" fill="#ABABAB"/>
<path d="M73.9154 60.8376H73.2744V63.1324H73.9154V60.8376Z" fill="#DACEE6"/>
<path d="M77.1732 60.8376H76.5322V63.1324H77.1732V60.8376Z" fill="#DACEE6"/>
<path d="M80.4135 60.8376H79.7725V63.1324H80.4135V60.8376Z" fill="#DACEE6"/>
<path d="M83.6547 60.8376H83.0137V63.1324H83.6547V60.8376Z" fill="#DACEE6"/>
<path d="M86.8959 60.8376H86.2549V63.1324H86.8959V60.8376Z" fill="#DACEE6"/>
<path d="M90.1362 60.8376H89.4951V63.1324H90.1362V60.8376Z" fill="#DACEE6"/>
<path d="M34.0102 40.9497H31.7666V48.421H34.0102V40.9497Z" fill="#EDEDED" stroke="#808285" stroke-width="0.15" stroke-miterlimit="10"/>
<path d="M82.2307 46.1797H75.5889V48.8124H82.2307V46.1797Z" fill="#DD4B26"/>
<path d="M79.7729 41.4302H78.0635V46.1798H79.7729V41.4302Z" fill="#DD4B26"/>
<path d="M101.568 80.9212H100.624V48.4211H101.568C104.346 48.4211 106.607 50.6803 106.607 53.4554V75.8692C106.607 78.662 104.346 80.9212 101.568 80.9212Z" fill="#EDEDED" stroke="#808285" stroke-width="0.15" stroke-miterlimit="10"/>
<path d="M100.625 87.2896H97.8291V96.3796H100.625V87.2896Z" fill="#DD4B26"/>
<path d="M133.727 57.031C148.827 77.826 145.07 91.0075 145.07 91.0075L131.412 92.8397C131.412 92.8397 115.297 51.4275 110.988 44.063C108.068 39.0287 123.221 42.5865 133.727 57.031Z" fill="#51C3CF"/>
<path d="M110.667 65.9964C111.059 65.943 111.38 65.6584 111.451 65.267C111.647 64.2709 111.736 61.1756 111.077 59.3078C110.774 58.4539 109.51 56.2481 107.444 55.6789C106.964 55.5544 105.966 55.252 105.486 55.6611C105.201 55.9101 104.969 56.8352 105.931 59.3256C106.323 60.3218 107.373 63.0257 108.139 63.7906C108.139 63.7906 109.599 66.4411 109.741 67.0637C109.866 67.4728 109.955 66.0853 110.667 65.9964Z" fill="#B57F71"/>
<path d="M108.316 64.9825C104.63 69.5364 106.215 75.7269 111.059 79.0178C120.799 85.6174 130.04 93.5156 134.171 95.3657C139.317 97.6604 147.491 95.0277 144.998 87.2896C144.054 84.3366 139.264 79.0178 135.614 76.2427C124.378 67.5974 115.065 56.6395 108.316 64.9825Z" fill="#51C3CF"/>
<path d="M111.575 62.4386C113.712 61.4068 116.347 61.727 118.502 62.741C119.624 63.2213 120.585 63.9506 121.529 64.591C122.491 65.267 123.417 65.9608 124.342 66.6723C126.194 68.0954 128.011 69.5363 129.773 71.0661C131.536 72.5782 133.299 74.108 134.973 75.7446C133.032 74.446 131.145 73.0763 129.275 71.6887C127.387 70.319 125.553 68.8959 123.701 67.4906L120.941 65.3915C120.015 64.68 119.107 63.9862 118.128 63.4526C117.149 62.9189 116.08 62.492 114.958 62.3319C113.872 62.1184 112.715 62.1362 111.575 62.4386Z" fill="#44AAAF"/>
<path d="M108.317 64.9824C107.177 66.5834 106.483 68.4868 106.501 70.3902C106.465 72.2936 107.195 74.1436 108.317 75.6735C110.667 78.662 113.837 81.1168 116.9 83.4827C119.98 85.902 123.221 88.09 126.497 90.2425C128.136 91.3098 129.792 92.3415 131.501 93.3199C133.193 94.3161 134.902 95.2589 136.701 96.0594C132.961 94.8142 129.471 92.9108 126.07 90.9184C122.687 88.9083 119.41 86.6847 116.259 84.3188C114.692 83.1092 113.178 81.8462 111.7 80.5298C110.258 79.1779 108.78 77.8437 107.64 76.136C106.536 74.446 105.824 72.4181 105.984 70.3902C106.162 68.3623 106.999 66.4411 108.317 64.9824Z" fill="#44AAAF"/>
<path d="M80.8418 18.4293C80.8418 18.4293 91.1517 30.7925 99.4852 26.7011C107.819 22.6096 94.4103 14.7114 94.4103 14.7114L80.8418 18.4293Z" fill="#353635"/>
<path d="M78.0993 36.6094C78.0993 36.6094 87.323 19.4432 84.7945 15.1206C82.266 10.7979 75.5352 18.8562 75.5352 18.8562L78.0993 36.6094Z" fill="#353635"/>
<path d="M140.671 145.263C139.923 125.856 50.8553 102.125 41.4891 123.436C23.006 165.489 8.95665 232.624 14.4945 240.166C15.9012 242.087 19.8542 242.959 19.8542 242.959C21.4924 243.582 22.1691 242.55 22.9882 240.486L61.9309 147.38C61.9309 147.38 100.963 169.1 115.137 168.887C138.623 168.513 141.17 158.16 140.671 145.263Z" fill="#D8D8D8" stroke="#808285" stroke-width="0.15" stroke-miterlimit="10"/>
<path d="M93.0384 121.586H53.8997H8.26172V137.596H53.8997H103.473H124.093V121.586H93.0384Z" fill="#EDEDED" stroke="#808285" stroke-width="0.15" stroke-miterlimit="10"/>
<path d="M109.332 111.998H15.3496V110.877C15.3496 107.551 18.0562 104.847 21.386 104.847H103.314C106.643 104.847 109.35 107.551 109.35 110.877V111.998H109.332Z" fill="#EDEDED" stroke="#808285" stroke-width="0.15" stroke-miterlimit="10"/>
<path d="M109.332 111.998H15.3496V121.586H109.332V111.998Z" fill="#ABABAB"/>
<path d="M38.8187 106.982H26.7637V109.97H38.8187V106.982Z" fill="#C4B2D7"/>
<path d="M59.9719 104.829L18.6431 103.762C18.6431 103.762 14.4942 106.377 11.378 114.453C8.27969 122.529 2.33233 120.679 1.10368 124.77C-0.124964 128.844 1.10368 156.363 1.10368 156.363H43.3406L41.1148 131.957C41.2751 128.222 43.2694 124.824 46.4212 122.814C48.7004 121.373 51.2111 119.398 52.7069 117.068C55.9832 111.998 49.5551 106.928 59.9719 104.829Z" fill="#DD4B26"/>
<path d="M32.0161 108.885L31.6777 93.1243H32.9598L32.0161 108.885Z" fill="#C4B2D7"/>
<path d="M27.0299 102.072C25.8903 101.752 22.329 101.36 20.1388 101.93C19.1238 102.197 16.4528 103.442 15.5981 105.754C15.4022 106.288 14.9571 107.426 15.3844 108.013C15.6337 108.351 17.3075 107.302 18.5184 105.808C19.3019 104.865 20.6552 105.185 21.4921 105.559C21.4921 105.559 19.5333 106.786 19.8361 107.355C20.1388 107.925 24.0384 106.537 24.9999 105.719C24.9999 105.719 27.2257 104.385 27.849 103.993C28.579 103.566 27.475 102.197 27.0299 102.072Z" fill="#B57F71"/>
</g>
<defs>
<clipPath id="clip0">
<rect width="182" height="288" fill="white"/>
</clipPath>
</defs>
</svg>
