<svg width="201" height="212" viewBox="0 0 201 212" fill="none" xmlns="http://www.w3.org/2000/svg">
<g clip-path="url(#clip0)">
<path d="M21.5553 97.3617C21.5553 97.3617 26.5245 97.201 30.1756 110.099L46.7052 99.9717C47.056 99.7542 47.1983 98.9409 47.2647 98.4965C47.3974 97.5225 50.4511 93.6265 51.627 94.61C52.2814 95.1584 52.3193 96.8795 52.234 97.5698C52.1581 98.1371 51.1339 98.7612 50.6977 99.1395L49.4743 100.189C49.076 100.52 48.7346 100.917 48.4691 101.371L48.2415 101.806L48.0897 102.033C46.6008 103.915 39.2228 113.872 34.519 116.927C34.519 116.927 27.6531 121.021 24.6279 116.766C22.6458 113.976 16.292 106.08 16.292 106.08L17.4869 97.9953L21.5553 97.3617Z" fill="#B57F71"/>
<path d="M11.2757 207.026C11.2568 206.752 11.1145 206.487 10.8395 206.288H10.83C8.44968 204.558 5.78486 203.499 4.4477 203.035C3.94508 202.856 3.66058 202.336 3.77438 201.816C4.1063 200.378 4.59943 197.92 4.63737 197.295L1.30871 196.738C1.138 199.423 0.796603 202.506 0.502619 204.038C0.483652 204.132 0.483652 204.227 0.493135 204.321L0 206.194L10.849 209.078L11.3895 207.064L11.2757 207.026Z" fill="#015F82"/>
<path d="M34.329 204.879V204.501H34.1678C34.0634 204.35 33.9022 204.227 33.6936 204.142H33.6841C30.9529 203.054 28.0984 202.685 26.6949 202.572C26.1638 202.525 25.756 202.09 25.737 201.56C25.6991 200.094 25.5663 197.579 25.4525 196.964L22.0859 197.239C22.5886 199.886 23.0248 202.95 23.1196 204.51C23.1196 204.52 23.1196 204.529 23.1196 204.539V206.165H34.329V205.305C34.3574 205.172 34.3574 205.021 34.329 204.879Z" fill="#015F82"/>
<path d="M23.0059 203.035C23.0059 203.035 26.5147 203.083 26.6285 202.563C26.6285 202.563 26.4009 202.563 26.088 201.683V197.967L22.2188 198.014L23.0059 203.035Z" fill="#B57F71"/>
<path d="M0.768555 202.572C0.768555 202.572 4.1636 203.489 4.3912 203.017C4.3912 203.017 4.1636 202.96 4.08773 202.033L5.00762 198.43L1.25221 197.513L0.768555 202.572Z" fill="#B57F71"/>
<path d="M27.5002 197.466C27.3864 198.26 26.6657 198.856 25.7932 198.865L21.5542 198.931C21.8861 199.82 14.3278 176.605 14.5365 158.799C14.5365 158.6 14.5839 158.402 14.6598 158.222L23.0715 138.08C23.7069 136.567 24.7975 131.092 25.4518 132.643C28.771 140.463 31.7488 168.709 27.5002 197.466Z" fill="#6DCBD4"/>
<path d="M24.0495 133.721C20.7303 134.355 13.4091 132.265 2.61705 130.62C1.75407 130.487 0.255694 132.681 0.416911 133.475C1.03333 136.492 2.7593 144.69 3.89731 150.572C5.42413 158.478 7.68117 159.688 2.01012 172.643C2.00063 172.662 1.6782 173.655 1.66872 173.674C1.41266 174.175 -0.199508 188.662 0.635029 197.069C0.672962 197.485 0.957463 198.27 1.32731 198.515L4.42838 198.998C5.39568 199.272 5.58535 199.036 6.00262 198.525C8.89504 195.026 12.4987 175.357 17.2878 166.062C22.6649 155.631 23.5279 146.487 26.0599 132.463C26.2022 131.66 24.9125 133.551 24.0495 133.721Z" fill="#51C3CF"/>
<path d="M23.329 97.7776C23.329 97.7776 25.567 99.735 25.7282 100.142C26.3636 101.74 26.3162 117.683 26.3731 118.865C26.3731 118.903 26.3731 118.941 26.3731 118.969L26.0507 134.137C26.0317 134.837 25.6239 135.338 24.9506 135.565C21.4607 136.737 10.2988 139.934 1.42237 136.075C1.2327 135.99 1.062 135.877 0.91027 135.735C0.587836 135.423 0.407652 135.007 0.407652 134.562C0.369718 129.409 0.0757354 98.8934 15.4483 94.1369C15.9414 93.9856 18.189 94.0802 18.6252 94.3449L23.329 97.7776Z" fill="#015F82"/>
<path d="M29.2185 153.693C29.5315 154.09 30.1384 154.109 30.4703 153.73C33.0783 150.846 29.778 148.378 29.3228 146.383L21.3758 124.804C21.3663 124.785 21.3663 124.766 21.3568 124.747L16.5108 108.076C16.0177 105.929 13.7037 104.615 11.3613 105.144L10.6501 105.305C8.31718 105.844 6.80933 108.038 7.30246 110.184L9.5595 119.962C11.2855 128.161 15.3444 136.019 15.8565 136.983C15.8944 137.05 16.5203 137.853 16.5677 137.901L26.5158 148.473C27.7107 149.797 27.6917 148.775 29.0573 153.409C29.0952 153.503 29.1521 153.607 29.2185 153.693Z" fill="#B57F71"/>
<path d="M17.3152 108.794L7.21546 115.347L6.03952 107.631C6.03952 107.631 5.07222 103.716 9.53889 102.099C13.9961 100.482 15.8358 103.943 15.8358 103.943L16.016 104.283C16.0255 104.283 16.4523 105.286 17.3152 108.794Z" fill="#015F82"/>
<path d="M20.3886 92.3215L20.5782 92.3309C22.0956 92.3782 23.3853 91.1772 23.4327 89.6642L23.6224 83.9243C23.6698 82.4113 22.4654 81.1252 20.9481 81.0779L20.7584 81.0685C19.2411 81.0212 17.9513 82.2222 17.9039 83.7352L17.7142 89.4751C17.6668 90.9976 18.8712 92.2742 20.3886 92.3215Z" fill="#B57F71"/>
<path d="M14.5847 97.1158L21.9723 101.068C22.4938 101.087 20.5118 96.8037 20.5308 96.3782L20.8912 82.9503C20.9006 82.5248 20.2842 82.156 19.7626 82.1465L15.4382 82.0047C14.9166 81.9857 14.4804 82.3262 14.4614 82.7517L14.0347 95.6122C14.0157 96.0377 13.826 96.7848 14.5847 97.1158Z" fill="#B57F71"/>
<path d="M20.5502 92.3687C19.1751 92.3403 18.1509 91.9621 17.5156 91.2529C16.719 90.3734 16.8043 89.267 16.8138 89.2576L16.9086 89.267C16.9086 89.2765 16.8233 90.345 17.5914 91.1961C18.2173 91.8864 19.2131 92.2552 20.5597 92.2836L20.5502 92.3687Z" fill="#4772B8"/>
<path d="M16.424 84.8793C15.6179 84.1133 13.9868 85.0117 15.6464 87.0921C16.5094 88.1795 13.6169 90.137 13.5506 88.8793C13.4747 87.4325 13.5126 85.0684 13.4557 83.5271C13.3988 81.91 12.2798 78.9597 15.8266 79.3474C19.5915 79.754 17.6758 76.4254 22.0382 76.4632C25.0728 76.4916 25.0634 80.1228 24.5038 81.1724C24.2288 81.6831 23.3658 82.7138 21.858 82.4018L20.0751 81.8817C19.3259 81.8627 18.9371 81.8155 18.0836 82.4018L16.424 84.8793Z" fill="#333333"/>
<path opacity="0.6" d="M116.171 168.889C116.399 168.889 116.579 168.7 116.579 168.463V163.47C120.325 161.551 125.588 156.955 130.102 146.024C148.917 139.688 161.644 127.574 161.644 113.664C161.644 102.166 152.948 91.8866 139.301 85.0875C139.311 84.1892 139.32 83.2719 139.33 82.3546H141.994C144.659 82.3546 146.84 80.0757 146.84 77.2861C146.84 74.4965 144.659 72.2175 141.994 72.2175H60.3332C57.6683 72.2175 55.4871 74.4965 55.4871 77.2861C55.4871 80.0757 57.6683 82.3546 60.3332 82.3546H63.1782C63.1592 82.8842 63.1308 83.4705 63.1118 84.0946C48.2703 90.8558 38.6826 101.579 38.6826 113.655C38.6826 127.991 52.1964 140.426 71.9598 146.582C75.241 153.721 79.6792 159.556 85.6727 162.78V168.463C85.6727 168.7 85.8529 168.889 86.0805 168.889H92.7568V195.272C92.7568 198.818 90.6799 199.177 90.073 199.206H86.64C84.0795 199.206 81.9932 201.286 81.8225 203.924H70.2338C68.1095 203.924 66.3741 205.74 66.3741 207.962C66.3741 210.184 68.1095 212 70.2338 212H133.972C136.096 212 137.831 210.184 137.831 207.962C137.831 205.74 136.096 203.924 133.972 203.924H119.794C119.633 201.296 117.537 199.206 114.976 199.206H112.672C112.255 199.196 109.504 198.998 109.504 195.168V168.889H116.171ZM155.736 113.655C154.759 124.492 145.778 134.166 132.246 140.161C135.698 129.428 138.419 114.043 139.149 91.9622C149.742 98.61 156.333 107.007 155.736 113.655ZM44.5908 113.655C44.4959 105.541 51.6938 96.766 62.9885 90.3168C62.9221 102.96 63.823 123.508 69.3518 139.934C54.5957 133.296 44.6951 122.733 44.5908 113.655Z" fill="#E6E7E8"/>
<path d="M87.3228 72.2175H60.3331C57.6683 72.2175 55.4871 74.4965 55.4871 77.2861C55.4871 80.0757 57.6683 82.3546 60.3331 82.3546H63.1782C63.1592 82.8842 63.1307 83.4705 63.1118 84.0946C48.2703 90.8558 38.6826 101.579 38.6826 113.655C38.6826 127.991 52.1964 140.426 71.9597 146.582C75.241 153.721 79.6792 159.556 85.6727 162.78V168.463C85.6727 168.7 85.8529 168.889 86.0805 168.889H92.7568V195.272C92.7568 198.818 90.6799 199.177 90.073 199.206H86.64C84.0795 199.206 81.9931 201.286 81.8224 203.924H70.2338C68.1095 203.924 66.374 205.74 66.374 207.962C66.374 210.184 68.1095 212 70.2338 212H106.327L87.3228 72.2175ZM44.5908 113.655C44.4959 105.541 51.6938 96.766 62.9885 90.3168C62.9221 102.96 63.823 123.508 69.3518 139.934C54.5957 133.296 44.6951 122.733 44.5908 113.655Z" fill="#E6EBEC"/>
<path d="M116.408 162.799H85.6533V168.785H116.408V162.799Z" fill="#E6EBEC"/>
<path d="M133.877 212H70.3386C68.1669 212 66.3936 210.231 66.3936 208.066V207.792C66.3936 205.626 68.1669 203.858 70.3386 203.858H133.877C136.049 203.858 137.822 205.626 137.822 207.792V208.066C137.822 210.231 136.049 212 133.877 212Z" fill="#E6EBEC"/>
<path d="M141.835 82.5152H60.5625C57.8123 82.5152 55.5742 80.274 55.5742 77.5412V77.1913C55.5742 74.449 57.8218 72.2173 60.5625 72.2173H141.835C144.585 72.2173 146.823 74.4584 146.823 77.1913V77.5412C146.833 80.2835 144.585 82.5152 141.835 82.5152Z" fill="#E6EBEC"/>
<path d="M171.467 100.946C169.826 100.776 168.622 99.3004 168.792 97.6644L169.305 92.6715C169.475 91.0356 170.955 89.8346 172.595 90.0048C174.236 90.1751 175.44 91.6502 175.27 93.2862L174.758 98.2791C174.587 99.915 173.107 101.116 171.467 100.946Z" fill="#B57F71"/>
<path d="M200.552 202.62L190.471 206.638C190.13 206.771 189.068 206.667 188.888 206.402C188.603 205.995 188.395 205.343 189.144 204.69C190.168 203.783 191.6 202.326 192.046 201.872C192.141 201.778 192.264 201.712 192.397 201.674L198.731 199.896C199.044 199.811 199.386 199.896 199.566 200.123L200.884 201.731C201.131 202.024 200.97 202.459 200.552 202.62Z" fill="#015F82"/>
<path d="M166.791 205.419L155.98 205.466C155.506 205.466 155.098 205.106 155.117 204.709C155.136 204.189 155.344 203.546 156.141 203.253C157.355 202.809 159.1 202.08 159.65 201.854C159.764 201.806 159.887 201.787 160.02 201.797L166.004 202.213C166.355 202.241 166.668 202.459 166.772 202.752L167.436 204.643C167.569 205.04 167.265 205.419 166.791 205.419Z" fill="#065870"/>
<path d="M169.75 90.1467C169.75 90.1467 171.353 86.6667 175.943 86.6667C180.533 86.6667 182.183 91.3287 182.24 94.3831C182.297 97.4374 184.763 98.6857 185.407 99.3571C185.92 99.8866 184.924 101.314 185.332 102.166C185.512 102.534 185.834 102.846 186.64 103.253C187.475 103.679 188.224 104.274 188.821 105.002C190.31 106.809 192.406 110.166 190.073 112.747C186.716 116.454 183.719 116.577 184.421 118.43C185.123 120.284 186.422 120.766 184.241 122.563C182.06 124.359 178.352 125.192 178.352 125.192L179.357 117.721L180.021 114.307L170.528 113.825C170.528 113.825 167.512 109.797 169.75 108.719C171.989 107.641 171.438 105.523 171.438 105.523L175.128 95.5367C175.128 95.5273 168.508 93.0781 169.75 90.1467Z" fill="#333333"/>
<path d="M172.425 186.723C172.425 186.723 169.609 195.357 167.816 198.364C166.024 201.371 166.782 202.705 166.782 202.705C166.782 202.705 160.675 204.227 159.594 203.801C157.166 202.856 159.736 201.816 159.736 201.816C159.736 201.816 162.335 201.362 163.596 198.96C164.848 196.567 164.677 185.428 164.677 185.428L172.425 186.723Z" fill="#B57F71"/>
<path d="M196.238 182.118C196.238 182.118 197.642 191.65 197.471 195.357C197.3 199.064 199.13 199.972 199.13 199.972C199.13 199.972 193.848 204.246 192.625 204.132C190.965 203.981 192.084 201.872 192.084 201.872C192.084 201.872 194.379 199.537 194.095 197.976C193.583 195.168 188.025 182.128 188.025 182.128H196.238V182.118Z" fill="#B57F71"/>
<path d="M167.322 133.475L162.419 162.818C162.419 162.818 161.651 166.241 163.111 170.534C164.562 174.828 164.932 184.653 164.477 186.185C164.145 187.3 165.785 187.565 165.785 187.565L172.13 188.492C172.13 188.492 174.975 185.475 172.86 181.107C172.86 181.107 172.518 179.735 172.585 178.913C172.651 178.09 173.856 174.96 171.655 167.338C170.442 163.13 177.393 155.518 177.393 155.518C177.393 155.518 184.581 148.435 183.33 142.714C182.059 136.974 167.322 133.475 167.322 133.475Z" fill="#065870"/>
<path d="M168.224 132.728L177.375 166.686C177.375 166.686 177.773 169.957 181.055 173.059C184.336 176.161 189.315 184.473 188.859 186.27C188.679 186.969 189.096 187.348 189.599 187.556C190.282 187.83 191.031 187.764 191.676 187.404L196.835 184.586C196.835 184.586 198.115 179.187 195.517 178.525C195.517 178.525 194.644 176.066 194.35 175.244C194.056 174.421 190.623 167.868 187.494 164.851C184.364 161.835 186.1 153.976 186.1 153.976C186.1 153.976 190.282 137.541 187.494 132.974C184.374 127.858 168.224 132.728 168.224 132.728Z" fill="#015F82"/>
<path d="M165.947 134.922H188.167C188.167 134.922 187.446 131.48 184.307 128.312C180.684 124.653 179.708 120.01 180.182 116.558C180.656 113.107 182.771 110.241 180.495 106.487C178.219 102.742 175.696 104.208 173.733 106.487C171.77 108.766 165.966 115.527 165.966 115.527C165.966 115.527 165.691 119.877 168.46 122.733C171.258 125.617 165.947 134.487 165.947 134.487V134.922Z" fill="#51C3CF"/>
<path d="M174.16 107.348C174.302 107.158 179.604 111.329 179.604 111.329C179.604 111.329 173.999 115.726 171.666 117.447C166.327 121.371 163.245 118.894 163.245 118.894C163.245 118.894 157.972 116.009 153.951 109.125C151.457 104.851 149.655 104.218 149.655 104.218C149.655 104.218 147.104 105.702 145.558 104.312C144.003 102.922 144.098 101.135 144.572 100.624C145.046 100.114 149.029 101.721 148.982 99.7353C148.934 97.7495 148.603 96.1324 149.447 96.6809C150.281 97.2294 150.31 101.05 150.31 101.05C150.31 101.05 162.818 111.253 163.254 111.537C168.006 114.648 174.16 107.348 174.16 107.348Z" fill="#B57F71"/>
<path d="M124.972 24.2932C125.01 11.1585 113.933 0.0662529 100.77 5.90824e-05C87.6546 -0.0661348 76.5875 10.714 76.3599 23.792C76.1892 33.6265 82.4008 42.1372 90.8125 45.9291H90.7841C90.8125 45.9386 90.8505 45.948 90.8789 45.9575C90.8789 45.9575 90.8884 45.9575 90.8884 45.967C91.9885 46.4587 92.548 47.7731 92.8135 48.9457C93.4774 51.9339 92.9937 54.9693 93.0601 55.1774L108.897 55.0923C108.916 49.6265 108.897 46.9504 109.779 46.2223C118.409 42.6289 124.943 34.1845 124.972 24.2932Z" fill="#ED5726"/>
<path d="M106.091 67.7161L96.181 67.6878C94.18 67.6783 92.5394 66.0424 92.5489 64.0377L92.5773 55.858C92.5773 55.4135 92.9472 55.0542 93.3834 55.0542L108.974 55.1015C109.42 55.1015 109.78 55.4703 109.78 55.9053L109.752 64.0849C109.742 66.0897 108.102 67.7256 106.091 67.7161Z" fill="#D64827"/>
<path d="M98.1522 55.2245L94.3683 29.5696C91.7509 29.1914 89.143 28.3971 87.8912 26.7989C86.848 25.4562 86.5066 23.6311 87.0282 22.1465C87.4929 20.8226 88.593 19.8959 90.1293 19.5271C91.0207 19.3096 91.8268 19.4325 92.5285 19.877C93.9795 20.8131 94.3873 22.8557 94.4063 22.9408V22.9597L95.2503 28.6713C95.5253 28.6997 95.8098 28.728 96.1038 28.7564C99.0436 29.0023 101.68 28.8131 101.708 28.8131H101.727C102.666 28.7848 104.193 28.6713 105.824 28.4538C105.881 27.9432 105.919 27.5555 105.948 27.319C106.014 26.8179 106.052 26.2789 106.099 25.702C106.213 24.2458 106.327 22.7422 106.801 21.5507C107.38 20.085 108.432 19.3474 109.931 19.3474H109.94C111.657 19.3569 113.174 20.3025 113.989 21.9006C114.796 23.4893 114.729 25.3427 113.8 26.6193C112.918 27.8297 110.604 28.7375 106.924 29.3049C106.867 29.3143 106.811 29.3238 106.744 29.3332C106.09 35.8391 104.354 54.9881 104.335 55.2056L103.34 55.111C103.359 54.8935 105.056 36.2174 105.729 29.4656C103.653 29.7304 101.927 29.7966 101.775 29.7966C101.481 29.8155 98.56 30.0141 95.402 29.6831L99.1385 55.0637L98.1522 55.2245ZM90.9733 20.4254C90.7836 20.4254 90.5845 20.4538 90.3758 20.5011C89.162 20.7942 88.3369 21.4751 87.986 22.4869C87.5782 23.6595 87.8532 25.1063 88.6973 26.1937C89.5697 27.319 91.4664 28.1228 94.2356 28.5484L93.439 23.1299C93.4105 23.007 93.0596 21.39 92.007 20.7186C91.6845 20.52 91.3431 20.4254 90.9733 20.4254ZM109.931 20.3592C107.683 20.3592 107.351 22.5153 107.095 25.7966C107.048 26.3829 107.01 26.9313 106.943 27.4514C106.924 27.6406 106.886 27.9337 106.848 28.312C109.485 27.8959 112.15 27.1867 112.984 26.0424C113.695 25.0685 113.733 23.6216 113.098 22.364C112.453 21.0968 111.296 20.3592 109.94 20.3592C109.94 20.3592 109.94 20.3592 109.931 20.3592Z" fill="white"/>
</g>
<defs>
<clipPath id="clip0">
<rect width="201" height="212" fill="white"/>
</clipPath>
</defs>
</svg>
